<?xml version="1.0" encoding="utf-8"?>
<!-- Generator: Adobe Illustrator 22.1.0, SVG Export Plug-In . SVG Version: 6.00 Build 0)  -->
<svg version="1.1" id="Layer_1" xmlns="http://www.w3.org/2000/svg" xmlns:xlink="http://www.w3.org/1999/xlink" x="0px" y="0px"
	 viewBox="0 0 360 360" style="enable-background:new 0 0 360 360;" xml:space="preserve">
<style type="text/css">
	.st0{fill:#FFFFFF;}
</style>
<g>
	<path class="st0" d="M243.2,131L131,243.2c13.6,10.5,30.6,16.8,49,16.8c44.1,0,80-35.9,80-80C260,161.5,253.7,144.5,243.2,131z"/>
	<path class="st0" d="M116.8,229L229,116.8c-13.6-10.5-30.6-16.8-49-16.8c-44.1,0-80,35.9-80,80C100,198.5,106.3,215.5,116.8,229z"
		/>
	<path d="M257.4,116.7l20.8-20.8l-14.1-14.1l-20.8,20.8C226,88.5,204,80,180,80c-55.2,0-100,44.8-100,100c0,24,8.5,46,22.6,63.3
		l-20.8,20.8l14.1,14.1l20.8-20.8C134,271.5,156,280,180,280c55.2,0,100-44.8,100-100C280,156,271.5,134,257.4,116.7z M180,260
		c-18.5,0-35.5-6.3-49-16.8L243.2,131c10.5,13.6,16.8,30.6,16.8,49C260,224.1,224.1,260,180,260z M180,100c18.5,0,35.5,6.3,49,16.8
		L116.8,229c-10.5-13.6-16.8-30.6-16.8-49C100,135.9,135.9,100,180,100z"/>
</g>
</svg>
